 <svg width="14" height="14" viewBox="0 0 14 14" fill="#2F1E1E;" xmlns="http://www.w3.org/2000/svg">
<path fill-rule="evenodd" clip-rule="evenodd" d="M9.8835 8.93266L13.4702 12.5193C13.5962 12.6455 13.667 12.8165 13.667 12.9949C13.6669 13.1732 13.596 13.3443 13.4698 13.4703C13.3437 13.5964 13.1726 13.6672 12.9943 13.6671C12.8159 13.6671 12.6449 13.5961 12.5188 13.47L8.93217 9.88333C7.85998 10.7138 6.51169 11.1046 5.16159 10.9762C3.81149 10.8479 2.56099 10.21 1.66449 9.1924C0.767992 8.17479 0.292831 6.85387 0.335672 5.49836C0.378513 4.14285 0.936138 2.85457 1.89511 1.8956C2.85408 0.936626 4.14236 0.379001 5.49787 0.33616C6.85338 0.293319 8.1743 0.768481 9.19191 1.66498C10.2095 2.56148 10.8474 3.81198 10.9757 5.16208C11.1041 6.51218 10.7133 7.86047 9.88284 8.93266H9.8835ZM5.66684 9.66666C6.7277 9.66666 7.74512 9.24523 8.49526 8.49509C9.24541 7.74494 9.66684 6.72753 9.66684 5.66666C9.66684 4.60579 9.24541 3.58838 8.49526 2.83823C7.74512 2.08809 6.7277 1.66666 5.66684 1.66666C4.60597 1.66666 3.58856 2.08809 2.83841 2.83823C2.08826 3.58838 1.66684 4.60579 1.66684 5.66666C1.66684 6.72753 2.08826 7.74494 2.83841 8.49509C3.58856 9.24523 4.60597 9.66666 5.66684 9.66666Z" fill="black"/>
</svg>
